<svg class="img-fluid" id="outputsvg" xmlns="http://www.w3.org/2000/svg" width="534" height="534" viewBox="0 0 5340 5340"><g id="l7jIsUgovNLMqjAkPv4jJCy" fill="rgb(255,255,255)" style="transform: none;"><g><path id="pLNNuHgke" d="M3282 2075 c-84 -18 -141 -47 -199 -100 -102 -92 -149 -215 -140 -370 6 -115 26 -178 82 -253 85 -116 205 -172 370 -172 118 0 202 25 282 84 99 73 161 192 170 328 18 246 -118 435 -346 484 -81 17 -137 17 -219 -1z m195 -301 c12 -7 34 -30 49 -50 36 -46 39 -118 8 -161 -24 -33 -97 -73 -135 -73 -58 0 -138 88 -139 153 0 108 129 186 217 131z"></path></g></g><g id="l2IHjlSFJ9nmJC5pl65vWlG" fill="rgb(224,224,224)" style="transform: none;"><g><path id="p1D64755u7" d="M2017 4910 c-306 -326 -467 -792 -467 -1349 0 -184 -1 -189 -21 -194 -20 -5 -21 -10 -15 -69 22 -200 90 -443 172 -616 43 -89 45 -92 72 -85 l27 6 -27 -34 c-151 -199 -252 -467 -274 -727 -5 -59 -11 -82 -20 -82 -8 0 -14 -10 -14 -23 0 -16 12 -28 44 -45 102 -54 244 -224 291 -346 17 -45 19 -46 61 -46 23 0 44 4 46 8 2 4 28 20 58 34 31 15 91 51 135 81 73 49 80 57 83 90 l3 37 -45 0 c-107 0 -244 51 -304 113 -27 27 -30 36 -19 45 10 9 28 5 73 -13 133 -54 339 -58 476 -10 67 23 74 23 85 9 20 -28 -20 -90 -126 -194 -65 -64 -126 -112 -185 -147 -104 -61 -212 -101 -229 -84 -6 6 -26 11 -44 11 -31 0 -33 -2 -33 -35 0 -18 6 -38 13 -42 18 -11 156 -577 144 -589 -2 -2 -23 67 -47 153 -115 419 -228 662 -376 807 -108 107 -268 154 -378 112 -86 -33 -165 -157 -201 -316 -46 -203 -20 -747 43 -890 26 -60 132 -193 185 -231 70 -52 216 -117 322 -145 249 -65 491 -13 588 126 14 20 14 20 85 -10 185 -79 408 -112 620 -92 160 15 339 52 478 97 113 37 274 109 326 146 l31 22 47 -26 c102 -58 253 -72 439 -42 225 37 380 117 496 257 97 118 98 124 92 333 -6 193 -30 356 -85 575 -80 312 -173 439 -331 448 -116 7 -186 -24 -253 -113 -77 -101 -113 -237 -158 -600 -17 -137 -40 -295 -50 -350 -19 -106 -60 -268 -66 -262 -2 2 5 45 16 96 24 109 46 289 60 501 21 312 84 542 185 680 35 47 47 94 23 85 -9 -3 -24 31 -46 103 -77 246 -221 492 -384 655 l-98 98 53 -6 c279 -33 537 -113 670 -208 54 -39 71 -61 132 -162 39 -65 89 -137 111 -161 91 -93 209 -81 265 27 46 91 33 268 -28 379 -79 146 -238 303 -368 365 -155 73 -386 128 -623 147 -127 10 -146 9 -156 -4 -6 -8 -24 -69 -41 -134 l-29 -119 -8 80 c-38 403 -83 644 -163 875 -103 295 -235 491 -447 663 -261 211 -548 346 -781 366 l-77 7 -33 -36z m734 -1904 c82 -29 149 -111 163 -201 7 -37 11 -42 67 -68 72 -34 164 -121 207 -197 31 -53 40 -89 25 -91 -5 0 -73 -2 -153 -3 -80 -2 -182 -7 -227 -11 l-83 -8 0 -41 c0 -22 3 -57 6 -78 6 -36 6 -36 68 -43 83 -10 142 -39 174 -87 52 -79 27 -173 -61 -227 -41 -25 -146 -51 -208 -51 -140 0 -275 101 -250 188 19 66 74 115 162 145 l44 15 -2 73 c-1 40 -7 77 -12 82 -15 15 -181 -6 -330 -43 -80 -20 -128 -27 -134 -21 -13 13 6 89 38 150 33 66 97 145 149 183 l45 33 -1 65 c-2 73 14 114 66 168 65 70 165 97 247 68z m720 -960 c261 -56 411 -317 320 -556 -83 -217 -305 -328 -522 -260 -261 81 -377 384 -236 619 61 102 156 169 279 196 81 17 81 17 159 1z"></path><path id="p1ErXQOpPe" d="M761 2854 c-97 -151 -151 -279 -187 -441 -26 -118 -24 -372 5 -477 38 -142 91 -205 181 -214 34 -3 57 1 87 17 71 36 105 102 154 294 16 66 39 138 51 161 31 62 88 133 129 161 35 25 36 27 32 78 -15 196 -112 335 -303 430 -47 23 -86 45 -88 50 -8 16 -21 4 -61 -59z"></path></g></g><g id="l2Dqs4dlT9NLXPzaZ35XTX6" fill="rgb(204,204,204)" style="transform: none;"><g><path id="p125LDVeR3" d="M2755 5288 c-239 -26 -491 -141 -662 -301 -34 -33 -63 -63 -63 -68 0 -5 24 -9 53 -9 247 0 709 -248 948 -508 258 -281 426 -805 456 -1420 4 -93 10 -135 20 -143 7 -7 16 -9 19 -6 3 3 26 81 50 173 24 92 47 171 52 176 11 11 217 -8 342 -32 134 -26 285 -73 375 -115 141 -67 310 -241 383 -396 20 -43 43 -79 50 -79 16 0 15 10 -8 107 -92 385 -378 679 -794 818 -94 32 -249 65 -302 65 -19 0 -24 6 -28 43 -35 280 -57 390 -141 687 -30 107 -59 228 -65 268 -16 116 4 198 60 246 33 27 43 29 147 30 51 1 66 5 87 25 29 28 41 75 31 127 -24 129 -358 273 -727 313 -110 12 -169 12 -283 -1z"></path><path id="p12LsUPQmH" d="M1423 3335 c-120 -40 -259 -108 -363 -178 -86 -57 -270 -238 -269 -265 0 -11 28 -31 87 -59 185 -89 302 -250 302 -414 0 -27 4 -49 8 -49 4 0 37 16 73 35 70 37 292 125 427 169 45 15 82 30 82 32 0 2 -13 28 -29 57 -78 138 -153 377 -187 595 -9 61 -20 112 -23 112 -3 0 -52 -16 -108 -35z"></path><path id="pQ7SvHpQL" d="M2790 2421 c0 -15 9 -20 40 -23 22 -2 40 0 40 4 0 5 7 8 15 8 8 0 15 7 15 15 0 12 -13 15 -55 15 -47 0 -55 -3 -55 -19z"></path><path id="pmxDW8ckl" d="M2533 2403 c-15 -3 -23 -12 -23 -25 0 -14 5 -18 15 -14 8 3 15 0 15 -7 0 -8 3 -8 9 2 5 8 19 12 35 9 14 -3 26 -1 26 3 0 18 32 8 37 -11 9 -35 33 -24 33 15 l0 35 -62 -1 c-35 -1 -73 -4 -85 -6z"></path><path id="pKxLm29rb" d="M4177 2035 c-139 -53 -217 -158 -281 -380 -36 -125 -54 -234 -66 -415 -22 -321 -57 -541 -115 -711 -14 -40 -23 -75 -20 -78 7 -7 82 67 105 105 44 70 87 290 135 679 39 318 78 462 153 560 119 156 288 151 398 -14 72 -106 133 -305 185 -601 23 -129 32 -407 17 -478 -12 -53 14 -34 39 29 29 72 47 214 39 303 -18 190 -85 526 -135 676 -58 171 -114 257 -199 307 -38 23 -60 27 -131 30 -58 2 -99 -2 -124 -12z"></path><path id="paVGW4VRf" d="M1240 1774 c-143 -39 -247 -159 -302 -351 -21 -71 -23 -99 -22 -298 0 -273 28 -463 91 -618 24 -59 64 -127 49 -84 -14 42 -46 220 -57 322 -21 177 -18 493 5 590 52 225 162 349 294 331 67 -9 165 -61 226 -122 144 -141 254 -371 362 -758 90 -323 120 -395 184 -446 22 -17 40 -30 40 -27 0 2 -13 33 -29 68 -18 41 -46 145 -76 289 -26 124 -64 294 -86 378 -38 150 -40 182 -13 182 22 0 17 27 -6 33 -26 7 -26 44 0 52 13 4 20 15 20 30 0 22 -2 23 -30 14 -16 -6 -30 -15 -30 -20 0 -5 -6 -9 -14 -9 -7 0 -21 21 -31 46 -27 70 -128 216 -187 269 -28 25 -72 58 -97 73 -25 14 -48 29 -51 34 -8 11 -120 38 -155 37 -16 0 -55 -7 -85 -15z"></path></g></g><g id="l50BlxetnbV7jprE230ZmPX" fill="rgb(254,64,128)" style="transform: none;"><g><path id="p1Czp4dQF7" d="M2600 3041 c-113 -23 -193 -122 -194 -241 -1 -44 -6 -69 -15 -76 -12 -10 -12 -32 4 -163 l18 -151 32 0 c18 0 35 6 38 13 3 8 40 21 84 31 43 10 91 22 107 27 16 5 98 9 182 9 l154 0 0 43 c0 23 -5 88 -12 144 -9 82 -15 104 -29 108 -11 4 -20 21 -24 48 -15 92 -81 174 -164 203 -39 14 -124 16 -181 5z"></path></g></g><g id="l6j89UPKKEcSOrk5elocYMI" fill="rgb(230,59,101)" style="transform: none;"><g><path id="p12AecL4Hq" d="M2646 2741 c-3 -5 0 -55 8 -112 7 -57 12 -107 10 -111 -3 -4 -30 -12 -62 -18 -31 -6 -79 -18 -106 -26 -61 -17 -56 -18 -56 6 0 13 -5 18 -15 14 -10 -4 -15 -20 -15 -48 0 -73 1 -73 152 -47 73 13 178 27 233 32 254 23 225 17 225 52 0 59 -12 107 -26 107 -14 0 -18 -17 -15 -52 2 -16 -10 -18 -123 -18 -144 0 -128 -15 -145 128 -6 46 -13 88 -16 93 -8 11 -42 12 -49 0z"></path></g></g><g id="l49cmBy2Pr6AH56jjYpsns4" fill="rgb(210,56,86)" style="transform: none;"><g><path id="p1ANvRyG5n" d="M2680 2505 c-7 -8 -10 -24 -7 -35 4 -15 0 -20 -15 -20 -27 0 -17 -24 12 -28 38 -6 90 8 90 23 0 8 -6 15 -14 15 -9 0 -16 12 -18 27 -3 32 -29 41 -48 18z"></path></g></g><g id="l48jTBWyab9pSU9Y5cx8zEa" fill="rgb(137,96,36)" style="transform: none;"><g><path id="pQ80q4XWQ" d="M3276 1687 c-22 -22 -26 -35 -26 -83 0 -50 3 -59 34 -90 30 -30 41 -34 84 -34 35 0 57 6 76 21 23 18 26 28 26 80 0 50 -4 63 -28 90 -24 27 -37 33 -85 37 -50 4 -58 2 -81 -21z"></path></g></g><g id="l5C9xaHUpEIQWKAds62pbon" fill="rgb(66,43,13)" style="transform: none;"><g><path id="pJGUZx9B6" d="M2950 2783 c1 -4 9 -73 20 -153 10 -80 17 -146 16 -148 -2 -1 -63 -7 -137 -13 -74 -6 -194 -20 -267 -33 l-133 -22 -4 21 c-2 11 -12 81 -21 155 -9 74 -18 137 -20 139 -7 7 -88 -65 -126 -113 -53 -67 -85 -132 -104 -212 -13 -60 -13 -68 1 -90 8 -13 21 -24 28 -24 6 0 73 15 147 34 141 36 286 63 294 55 2 -2 6 -26 8 -52 l3 -49 -44 -15 c-102 -35 -157 -94 -168 -180 -18 -160 186 -254 426 -198 77 19 122 45 159 93 24 31 27 44 27 112 0 66 -4 82 -27 117 -32 49 -90 78 -174 88 l-62 7 -7 45 c-3 25 -4 47 -1 51 10 9 285 21 362 15 121 -10 140 21 83 137 -36 71 -123 165 -189 202 -52 30 -90 43 -90 31z"></path><path id="pVhVHLt31" d="M3345 1818 c-80 -30 -118 -86 -117 -175 0 -64 32 -127 81 -160 69 -47 204 -20 255 50 17 23 21 44 21 106 0 70 -3 81 -28 114 -16 21 -39 44 -52 53 -30 20 -121 27 -160 12z m68 -179 c36 -39 36 -80 1 -108 -37 -29 -61 -26 -100 13 -41 41 -44 77 -8 112 31 32 67 27 107 -17z"></path><path id="pdE77cuil" d="M1775 1740 c-72 -79 90 -200 295 -218 l74 -7 -51 -37 c-28 -20 -89 -58 -135 -84 -106 -61 -118 -71 -118 -104 0 -133 286 -30 501 180 132 129 169 210 119 260 -25 25 -46 25 -96 1 -70 -34 -127 -45 -234 -45 -111 0 -194 18 -258 55 -42 24 -74 24 -97 -1z"></path></g></g></svg>